<svg version="1.2" xmlns="http://www.w3.org/2000/svg" viewBox="0 0 197 193" width="197" height="193">
	<style>
		.s0 { fill: #053262 } 
	</style>
	<g id="Clip-Path">
		<g>
			<path class="s0" d="m62.19 124.78h3.14q2.26 0 3.87 1.51 1.6 1.52 1.6 3.8 0 2.29-1.6 3.8-1.6 1.52-3.87 1.52h-3.14zm2.47 8.46h0.38q1.36 0 2.22-0.9 0.86-0.89 0.87-2.24 0-1.36-0.86-2.26-0.86-0.9-2.23-0.9h-0.38z"/>
			<path class="s0" d="m79.41 124.78v2.12h-3.73v2.12h3.57v2.12h-3.57v2.14h3.73v2.12h-6.21v-10.62z"/>
			<path class="s0" d="m87.65 124.78l4.38 10.63-2.66-0.01-0.8-2.12h-4.13l-0.8 2.12h-2.65l4.37-10.62zm0.08 6.37l-1.21-3.09h-0.02l-1.21 3.09z"/>
			<path class="s0" d="m96.23 124.78v8.5h3.74v2.13h-6.21v-10.63z"/>
			<path class="s0" d="m102.02 130.09q0-2.31 1.6-3.91 1.6-1.59 3.87-1.6 2.27 0.01 3.86 1.6 1.59 1.59 1.59 3.91 0 2.33-1.56 3.92-1.57 1.59-3.89 1.59-2.38 0-3.93-1.58-1.55-1.58-1.54-3.93zm2.67 0q-0.01 0.83 0.26 1.52 0.26 0.69 0.92 1.17 0.66 0.47 1.62 0.47 1.38 0 2.08-0.92 0.7-0.93 0.7-2.24 0-1.3-0.71-2.24-0.72-0.93-2.07-0.93-1.35 0-2.08 0.93-0.72 0.94-0.72 2.24z"/>
			<path class="s0" d="m115.34 124.78h3.88q1.57 0 2.55 0.82 0.99 0.81 0.99 2.34 0 1.17-0.6 1.96-0.6 0.79-1.62 1.11l3.73 4.4-3.14-0.01-3.31-4.19v4.2l-2.48-0.01zm2.48 4.72h0.29q0.34 0 0.57-0.01 0.24-0.02 0.54-0.09 0.3-0.08 0.49-0.22 0.18-0.14 0.32-0.41 0.13-0.28 0.13-0.66 0-0.39-0.13-0.66-0.14-0.27-0.32-0.41-0.19-0.14-0.49-0.22-0.3-0.08-0.54-0.09-0.23-0.01-0.57-0.01h-0.29z"/>
			<path class="s0" d="m131.58 124.78l4.38 10.63-2.66-0.01-0.8-2.12h-4.13l-0.8 2.12h-2.66l4.38-10.62zm0.08 6.37l-1.21-3.09h-0.03l-1.21 3.09z"/>
		</g>
	</g>
</svg>