<svg version="1.2" xmlns="http://www.w3.org/2000/svg" viewBox="0 0 197 193" width="197" height="193">
	<defs>
		<clipPath clipPathUnits="userSpaceOnUse" id="cp1">
			<path d="m69.48 60.47h48.48v45.37h-48.48z"/>
		</clipPath>
		<clipPath clipPathUnits="userSpaceOnUse" id="cp2">
			<path d="m81.56 48.81h24.56v21.31h-24.56z"/>
		</clipPath>
		<clipPath clipPathUnits="userSpaceOnUse" id="cp3">
			<path d="m93.64 74.37h32.05v38.21h-32.05z"/>
		</clipPath>
		<clipPath clipPathUnits="userSpaceOnUse" id="cp4">
			<path d="m93.69 78.9l26.05-4.42 5.94 33.64-26.05 4.42z"/>
		</clipPath>
		<clipPath clipPathUnits="userSpaceOnUse" id="cp5">
			<path d="m125.69 74.37h-32.05v38.21h32.05z"/>
		</clipPath>
		<clipPath clipPathUnits="userSpaceOnUse" id="cp6">
			<path d="m93.68 74.45h32.01v38.11h-32.01z"/>
		</clipPath>
		<clipPath clipPathUnits="userSpaceOnUse" id="cp7">
			<path d="m93.69 78.9l26.05-4.42 5.94 33.64-26.05 4.42z"/>
		</clipPath>
		<clipPath clipPathUnits="userSpaceOnUse" id="cp8">
			<path d="m90.62 80.42h32.7v27.66h-32.7z"/>
		</clipPath>
		<clipPath clipPathUnits="userSpaceOnUse" id="cp9">
			<path d="m88.27 89.59l28.83-11.47 8.59 20.72-28.83 11.47z"/>
		</clipPath>
		<clipPath clipPathUnits="userSpaceOnUse" id="cp10">
			<path d="m95.57 86.69l14.21-5.66c4.04-1.61 8.63 0.29 10.27 4.24l2.66 6.42c1.64 3.95-0.3 8.45-4.33 10.06l-14.22 5.66c-4.03 1.6-8.63-0.3-10.27-4.25l-2.66-6.41c-1.63-3.95 0.31-8.46 4.34-10.06z"/>
		</clipPath>
		<clipPath clipPathUnits="userSpaceOnUse" id="cp11">
			<path d="m123.32 80.42h-32.7v27.66h32.7z"/>
		</clipPath>
		<clipPath clipPathUnits="userSpaceOnUse" id="cp12">
			<path d="m90.62 80.42h32.7v27.66h-32.7z"/>
		</clipPath>
		<clipPath clipPathUnits="userSpaceOnUse" id="cp13">
			<path d="m88.27 89.59l28.83-11.47 8.59 20.72-28.83 11.47z"/>
		</clipPath>
		<clipPath clipPathUnits="userSpaceOnUse" id="cp14">
			<path d="m95.57 86.69l14.21-5.66c4.04-1.61 8.63 0.29 10.27 4.24l2.66 6.42c1.64 3.95-0.3 8.45-4.33 10.06l-14.22 5.66c-4.03 1.6-8.63-0.3-10.27-4.25l-2.66-6.41c-1.63-3.95 0.31-8.46 4.34-10.06z"/>
		</clipPath>
	</defs>
	<style>
		.s0 { fill: #053262 } 
		.s1 { fill: #ffffff } 
	</style>
	<g id="Clip-Path" clip-path="url(#cp1)">
		<g>
			<path class="s0" d="m114.39 105.89h-41.16c-1 0-1.97-0.41-2.66-1.12-0.68-0.71-1.05-1.68-0.99-2.66l2.17-38.21c0.1-1.9 1.71-3.39 3.65-3.39h36.82c1.94 0 3.55 1.49 3.65 3.39l2.17 38.21c0.06 0.98-0.31 1.95-1 2.66-0.68 0.71-1.65 1.12-2.65 1.12zm-38.99-42.99c-0.65 0-1.19 0.5-1.22 1.13l-2.17 38.21q-0.02 0.51 0.33 0.89 0.37 0.36 0.89 0.37h41.16c0.34 0 0.65-0.13 0.89-0.37 0.23-0.24 0.35-0.56 0.33-0.89l-2.17-38.21c-0.03-0.63-0.57-1.13-1.22-1.13z"/>
		</g>
	</g>
	<g id="Clip-Path" clip-path="url(#cp2)">
		<g>
			<path class="s0" d="m104.78 70.12c-0.67 0-1.22-0.53-1.22-1.19v-8.2c0-5.27-4.37-9.55-9.75-9.55-5.38 0-9.75 4.28-9.75 9.55v8.2c0 0.66-0.55 1.19-1.22 1.19-0.67 0-1.22-0.53-1.22-1.19v-8.2c0-6.58 5.47-11.94 12.19-11.94 6.72 0 12.19 5.36 12.19 11.94v8.2c0 0.66-0.55 1.19-1.22 1.19z"/>
		</g>
	</g>
	<g id="Clip-Path" clip-path="url(#cp3)">
		<g>
			<g id="Clip-Path" clip-path="url(#cp4)">
				<g>
					<g id="Clip-Path" clip-path="url(#cp5)">
						<g>
							<g id="Clip-Path" clip-path="url(#cp6)">
								<g>
									<g id="Clip-Path" clip-path="url(#cp7)">
										<g>
											<path class="s1" d="m93.69 78.9l26.05-4.42 5.93 33.59-26.05 4.42z"/>
										</g>
									</g>
								</g>
							</g>
						</g>
					</g>
				</g>
			</g>
		</g>
	</g>
	<g id="Clip-Path" clip-path="url(#cp8)">
		<g>
			<g id="Clip-Path" clip-path="url(#cp9)">
				<g>
					<g id="Clip-Path" clip-path="url(#cp10)">
						<g>
							<g id="Clip-Path" clip-path="url(#cp11)">
								<g>
									<g id="Clip-Path" clip-path="url(#cp12)">
										<g>
											<g id="Clip-Path" clip-path="url(#cp13)">
												<g>
													<g id="Clip-Path" clip-path="url(#cp14)">
														<g>
															<path class="s1" d="m88.27 89.59l28.83-11.47 8.59 20.72-28.83 11.47z"/>
														</g>
													</g>
												</g>
											</g>
										</g>
									</g>
								</g>
							</g>
						</g>
					</g>
				</g>
			</g>
		</g>
	</g>
</svg>