<svg version="1.2" xmlns="http://www.w3.org/2000/svg" viewBox="0 0 197 193" width="197" height="193">
	<defs>
		<clipPath clipPathUnits="userSpaceOnUse" id="cp1">
			<path d="m123.62 71.5h11.93v11.7h-11.93z"/>
		</clipPath>
		<clipPath clipPathUnits="userSpaceOnUse" id="cp2">
			<path d="m129.59 71.5c-3.3 0-5.97 2.62-5.97 5.85 0 3.23 2.67 5.85 5.97 5.85 3.29 0 5.96-2.62 5.96-5.85 0-3.23-2.67-5.85-5.96-5.85z"/>
		</clipPath>
		<clipPath clipPathUnits="userSpaceOnUse" id="cp3">
			<path d="m135.67 71.41h-12.08v11.84h12.08z"/>
		</clipPath>
		<clipPath clipPathUnits="userSpaceOnUse" id="cp4">
			<path d="m123.62 71.5h11.93v11.7h-11.93z"/>
		</clipPath>
		<clipPath clipPathUnits="userSpaceOnUse" id="cp5">
			<path d="m129.59 71.5c-3.3 0-5.97 2.62-5.97 5.85 0 3.23 2.67 5.85 5.97 5.85 3.29 0 5.96-2.62 5.96-5.85 0-3.23-2.67-5.85-5.96-5.85z"/>
		</clipPath>
		<clipPath clipPathUnits="userSpaceOnUse" id="cp6">
			<path d="m125.84 74.55h7.46v5.59h-7.46z"/>
		</clipPath>
	</defs>
	<style>
		.s0 { fill: #00bf63 } 
		.s1 { fill: #ffffff } 
	</style>
	<g id="Clip-Path" clip-path="url(#cp1)">
		<g>
			<g id="Clip-Path" clip-path="url(#cp2)">
				<g>
					<g id="Clip-Path" clip-path="url(#cp3)">
						<g>
							<g id="Clip-Path" clip-path="url(#cp4)">
								<g>
									<g id="Clip-Path" clip-path="url(#cp5)">
										<g>
											<path class="s0" d="m123.62 71.5h11.93v11.7h-11.93z"/>
										</g>
									</g>
								</g>
							</g>
						</g>
					</g>
				</g>
			</g>
		</g>
	</g>
	<g id="Clip-Path">
		<g>
			<path class="s1" d="m132.84 74.55q-0.17 0.01-0.3 0.13l-4.48 4.39-1.43-1.4q-0.07-0.06-0.15-0.1-0.08-0.03-0.16-0.03-0.09 0-0.17 0.03-0.09 0.03-0.15 0.09-0.06 0.06-0.09 0.14-0.04 0.08-0.03 0.17 0 0.08 0.03 0.16 0.04 0.08 0.1 0.14l1.74 1.71q0.06 0.06 0.14 0.09 0.08 0.03 0.17 0.03 0.09 0 0.17-0.03 0.08-0.03 0.14-0.09l4.79-4.7q0.05-0.04 0.08-0.1 0.03-0.06 0.04-0.12 0.02-0.06 0.01-0.13-0.01-0.06-0.03-0.12-0.03-0.06-0.07-0.11-0.04-0.05-0.1-0.08-0.05-0.04-0.12-0.05-0.06-0.02-0.13-0.02z"/>
		</g>
		<g id="Folder 4">
			<g id="Folder 3">
				<g id="Folder 2">
					<g id="Folder 1" clip-path="url(#cp6)">
					</g>
				</g>
			</g>
		</g>
	</g>
</svg>