<svg version="1.2" xmlns="http://www.w3.org/2000/svg" viewBox="0 0 197 193" width="197" height="193">
	<defs>
		<clipPath clipPathUnits="userSpaceOnUse" id="cp1">
			<path d="m93.64 74.37h32.05v38.21h-32.05z"/>
		</clipPath>
		<clipPath clipPathUnits="userSpaceOnUse" id="cp2">
			<path d="m93.69 78.9l26.05-4.42 5.94 33.64-26.05 4.42z"/>
		</clipPath>
		<clipPath clipPathUnits="userSpaceOnUse" id="cp3">
			<path d="m125.69 74.37h-32.05v38.21h32.05z"/>
		</clipPath>
		<clipPath clipPathUnits="userSpaceOnUse" id="cp4">
			<path d="m93.68 74.45h32.01v38.11h-32.01z"/>
		</clipPath>
		<clipPath clipPathUnits="userSpaceOnUse" id="cp5">
			<path d="m93.69 78.9l26.05-4.42 5.94 33.64-26.05 4.42z"/>
		</clipPath>
		<clipPath clipPathUnits="userSpaceOnUse" id="cp6">
			<path d="m90.62 80.42h32.7v27.66h-32.7z"/>
		</clipPath>
		<clipPath clipPathUnits="userSpaceOnUse" id="cp7">
			<path d="m88.27 89.59l28.83-11.47 8.59 20.72-28.83 11.47z"/>
		</clipPath>
		<clipPath clipPathUnits="userSpaceOnUse" id="cp8">
			<path d="m95.57 86.69l14.21-5.66c4.04-1.61 8.63 0.29 10.27 4.24l2.66 6.42c1.64 3.95-0.3 8.45-4.33 10.06l-14.22 5.66c-4.03 1.6-8.63-0.3-10.27-4.25l-2.66-6.41c-1.63-3.95 0.31-8.46 4.34-10.06z"/>
		</clipPath>
		<clipPath clipPathUnits="userSpaceOnUse" id="cp9">
			<path d="m123.32 80.42h-32.7v27.66h32.7z"/>
		</clipPath>
		<clipPath clipPathUnits="userSpaceOnUse" id="cp10">
			<path d="m90.62 80.42h32.7v27.66h-32.7z"/>
		</clipPath>
		<clipPath clipPathUnits="userSpaceOnUse" id="cp11">
			<path d="m88.27 89.59l28.83-11.47 8.59 20.72-28.83 11.47z"/>
		</clipPath>
		<clipPath clipPathUnits="userSpaceOnUse" id="cp12">
			<path d="m95.57 86.69l14.21-5.66c4.04-1.61 8.63 0.29 10.27 4.24l2.66 6.42c1.64 3.95-0.3 8.45-4.33 10.06l-14.22 5.66c-4.03 1.6-8.63-0.3-10.27-4.25l-2.66-6.41c-1.63-3.95 0.31-8.46 4.34-10.06z"/>
		</clipPath>
		<clipPath clipPathUnits="userSpaceOnUse" id="cp13">
			<path d="m78.14 75.14h52.93v30.11h-52.93z"/>
		</clipPath>
		<clipPath clipPathUnits="userSpaceOnUse" id="cp14">
			<path d="m77.89 75.41l50.9-8.38 8.24 48.06-50.9 8.38z"/>
		</clipPath>
		<clipPath clipPathUnits="userSpaceOnUse" id="cp15">
			<path d="m77.89 75.41l50.9-8.38 8.24 48.06-50.9 8.38z"/>
		</clipPath>
		<clipPath clipPathUnits="userSpaceOnUse" id="cp16">
			<path d="m98.11 106.54h13.26v12.99h-13.26z"/>
		</clipPath>
		<clipPath clipPathUnits="userSpaceOnUse" id="cp17">
			<path d="m77.89 75.41l50.9-8.38 8.24 48.06-50.9 8.38z"/>
		</clipPath>
		<clipPath clipPathUnits="userSpaceOnUse" id="cp18">
			<path d="m77.89 75.41l50.9-8.38 8.24 48.06-50.9 8.38z"/>
		</clipPath>
		<clipPath clipPathUnits="userSpaceOnUse" id="cp19">
			<path d="m116.1 103.58h13.26v12.99h-13.26z"/>
		</clipPath>
		<clipPath clipPathUnits="userSpaceOnUse" id="cp20">
			<path d="m77.89 75.41l50.9-8.38 8.24 48.06-50.9 8.38z"/>
		</clipPath>
		<clipPath clipPathUnits="userSpaceOnUse" id="cp21">
			<path d="m77.89 75.41l50.9-8.38 8.24 48.06-50.9 8.38z"/>
		</clipPath>
		<clipPath clipPathUnits="userSpaceOnUse" id="cp22">
			<path d="m121.42 69.36h16.33v15.99h-16.33z"/>
		</clipPath>
		<clipPath clipPathUnits="userSpaceOnUse" id="cp23">
			<path d="m129.59 69.36c-4.51 0-8.17 3.57-8.17 7.99 0 4.42 3.66 8 8.17 8 4.5 0 8.16-3.58 8.16-8 0-4.42-3.66-7.99-8.16-7.99z"/>
		</clipPath>
		<clipPath clipPathUnits="userSpaceOnUse" id="cp24">
			<path d="m137.77 69.35h-16.42v16.08h16.42z"/>
		</clipPath>
		<clipPath clipPathUnits="userSpaceOnUse" id="cp25">
			<path d="m121.42 69.36h16.33v15.99h-16.33z"/>
		</clipPath>
		<clipPath clipPathUnits="userSpaceOnUse" id="cp26">
			<path d="m129.59 69.36c-4.51 0-8.17 3.57-8.17 7.99 0 4.42 3.66 8 8.17 8 4.5 0 8.16-3.58 8.16-8 0-4.42-3.66-7.99-8.16-7.99z"/>
		</clipPath>
	</defs>
	<style>
		.s0 { fill: #ffffff } 
		.s1 { fill: #00bf63 } 
	</style>
	<g id="Clip-Path" clip-path="url(#cp1)">
		<g>
			<g id="Clip-Path" clip-path="url(#cp2)">
				<g>
					<g id="Clip-Path" clip-path="url(#cp3)">
						<g>
							<g id="Clip-Path" clip-path="url(#cp4)">
								<g>
									<g id="Clip-Path" clip-path="url(#cp5)">
										<g>
											<path class="s0" d="m93.69 78.9l26.05-4.42 5.93 33.59-26.05 4.42z"/>
										</g>
									</g>
								</g>
							</g>
						</g>
					</g>
				</g>
			</g>
		</g>
	</g>
	<g id="Clip-Path" clip-path="url(#cp6)">
		<g>
			<g id="Clip-Path" clip-path="url(#cp7)">
				<g>
					<g id="Clip-Path" clip-path="url(#cp8)">
						<g>
							<g id="Clip-Path" clip-path="url(#cp9)">
								<g>
									<g id="Clip-Path" clip-path="url(#cp10)">
										<g>
											<g id="Clip-Path" clip-path="url(#cp11)">
												<g>
													<g id="Clip-Path" clip-path="url(#cp12)">
														<g>
															<path class="s0" d="m88.27 89.59l28.83-11.47 8.59 20.72-28.83 11.47z"/>
														</g>
													</g>
												</g>
											</g>
										</g>
									</g>
								</g>
							</g>
						</g>
					</g>
				</g>
			</g>
		</g>
	</g>
	<g id="Clip-Path" clip-path="url(#cp13)">
		<g>
			<g id="Clip-Path" clip-path="url(#cp14)">
				<g>
					<g id="Clip-Path" clip-path="url(#cp15)">
						<g>
							<path fill-rule="evenodd" class="s1" d="m125.28 76.97l-29.92 4.92q-0.15 0.03-0.3 0.08-0.15 0.06-0.28 0.14-0.14 0.08-0.25 0.19-0.12 0.1-0.21 0.23-0.09 0.13-0.16 0.27-0.06 0.14-0.1 0.29-0.03 0.15-0.04 0.31 0 0.15 0.02 0.3 0.03 0.16 0.09 0.3 0.05 0.15 0.14 0.28 0.08 0.13 0.19 0.24 0.11 0.12 0.24 0.21 0.13 0.09 0.27 0.15 0.14 0.06 0.3 0.1 0.15 0.03 0.31 0.04 0.16 0 0.32-0.02l29.91-4.93q0.11-0.02 0.22-0.02 0.11 0 0.22 0.01 0.11 0.01 0.22 0.03 0.11 0.02 0.21 0.06 0.11 0.03 0.21 0.08 0.1 0.05 0.19 0.11 0.09 0.07 0.17 0.14 0.09 0.07 0.16 0.15 0.07 0.08 0.14 0.17 0.06 0.09 0.11 0.19 0.05 0.1 0.09 0.2 0.03 0.1 0.06 0.21 0.02 0.11 0.03 0.22 0.01 0.11 0 0.21 0 0.11-0.02 0.22-0.02 0.11-0.05 0.21c-1.2 3.86-2.43 12.23-3.29 14.97q-0.07 0.23-0.2 0.43-0.13 0.2-0.31 0.36-0.19 0.15-0.41 0.25-0.22 0.11-0.46 0.15l-22.02 3.62q-0.13 0.02-0.26 0.02-0.13 0.01-0.26-0.01-0.13-0.02-0.25-0.05-0.13-0.04-0.25-0.09-0.11-0.05-0.22-0.12-0.11-0.07-0.21-0.16-0.1-0.08-0.18-0.18-0.09-0.1-0.15-0.21c-0.01-0.02-8.69-20.97-8.69-20.97q-0.13-0.32-0.29-0.63-0.16-0.31-0.35-0.6-0.18-0.29-0.39-0.57-0.21-0.28-0.44-0.54-0.24-0.25-0.49-0.49-0.25-0.24-0.53-0.46-0.27-0.21-0.56-0.41-0.29-0.19-0.6-0.36-0.31-0.17-0.63-0.31-0.32-0.14-0.65-0.26-0.33-0.11-0.67-0.2-0.34-0.09-0.68-0.14-0.35-0.06-0.7-0.09-0.35-0.03-0.7-0.03-0.35 0-0.71 0.02-0.35 0.03-0.69 0.09l-1.97 0.32q-0.16 0.02-0.31 0.07-0.15 0.05-0.29 0.13-0.14 0.08-0.26 0.19-0.12 0.11-0.21 0.23-0.09 0.13-0.16 0.28-0.06 0.14-0.09 0.3-0.04 0.15-0.04 0.31 0.01 0.16 0.04 0.31 0.03 0.15 0.08 0.3 0.06 0.14 0.14 0.27 0.09 0.13 0.2 0.25 0.1 0.11 0.23 0.2 0.13 0.09 0.28 0.15 0.14 0.07 0.29 0.1 0.16 0.04 0.32 0.04 0.15 0.01 0.31-0.02l1.97-0.32q0.21-0.04 0.43-0.06 0.21-0.01 0.43-0.01 0.21 0 0.43 0.02 0.21 0.01 0.42 0.05 0.22 0.04 0.42 0.09 0.21 0.05 0.42 0.12 0.2 0.07 0.4 0.16 0.19 0.09 0.38 0.19 0.19 0.1 0.37 0.22 0.18 0.12 0.34 0.25 0.17 0.13 0.33 0.28 0.15 0.15 0.29 0.3 0.15 0.16 0.28 0.33 0.12 0.17 0.24 0.35 0.11 0.18 0.21 0.37 0.1 0.18 0.18 0.38l8.71 21.05q0.04 0.07 0.07 0.14 0.19 0.34 0.42 0.64 0.23 0.31 0.51 0.57 0.28 0.26 0.6 0.49 0.31 0.21 0.66 0.38 0.35 0.17 0.72 0.28 0.37 0.12 0.75 0.17 0.39 0.06 0.77 0.05 0.39 0 0.77-0.07l22.03-3.62q0.34-0.05 0.66-0.16 0.33-0.1 0.64-0.24 0.31-0.15 0.6-0.33 0.29-0.19 0.54-0.41 0.26-0.22 0.49-0.47 0.22-0.26 0.41-0.54 0.19-0.29 0.33-0.59 0.15-0.31 0.25-0.63c0.85-2.74 2.07-11.1 3.28-14.97q0.05-0.15 0.08-0.3 0.04-0.15 0.06-0.3 0.03-0.15 0.05-0.3 0.01-0.16 0.02-0.31 0.01-0.16 0.01-0.31-0.01-0.16-0.02-0.31-0.01-0.15-0.04-0.31-0.02-0.15-0.05-0.3-0.04-0.15-0.08-0.3-0.04-0.15-0.09-0.29-0.06-0.15-0.12-0.29-0.06-0.14-0.13-0.28-0.07-0.14-0.15-0.27-0.08-0.14-0.17-0.27-0.09-0.12-0.18-0.25-0.1-0.12-0.2-0.23-0.11-0.12-0.22-0.23-0.11-0.11-0.23-0.21-0.12-0.1-0.24-0.2-0.13-0.09-0.26-0.18-0.13-0.09-0.26-0.17-0.14-0.07-0.28-0.14-0.14-0.07-0.28-0.13-0.15-0.07-0.3-0.12-0.15-0.05-0.3-0.09-0.15-0.04-0.31-0.08-0.15-0.03-0.31-0.05-0.15-0.03-0.31-0.04-0.15-0.01-0.31-0.02-0.16 0-0.32 0-0.16 0.01-0.31 0.03-0.16 0.01-0.31 0.04z"/>
						</g>
					</g>
				</g>
			</g>
		</g>
	</g>
	<g id="Clip-Path" clip-path="url(#cp16)">
		<g>
			<g id="Clip-Path" clip-path="url(#cp17)">
				<g>
					<g id="Clip-Path" clip-path="url(#cp18)">
						<g>
							<path fill-rule="evenodd" class="s1" d="m103.65 106.68q-0.32 0.05-0.63 0.14-0.31 0.08-0.61 0.19-0.3 0.11-0.59 0.25-0.29 0.15-0.57 0.31-0.27 0.17-0.53 0.36-0.25 0.2-0.49 0.41-0.23 0.22-0.44 0.46-0.21 0.24-0.4 0.49-0.19 0.26-0.35 0.54-0.16 0.27-0.29 0.56-0.13 0.29-0.24 0.59-0.1 0.3-0.17 0.6-0.07 0.31-0.12 0.62-0.04 0.32-0.05 0.63 0 0.32 0.02 0.63 0.02 0.32 0.07 0.63 0.06 0.31 0.14 0.62 0.08 0.3 0.2 0.6 0.11 0.29 0.26 0.58 0.14 0.28 0.31 0.55 0.17 0.27 0.37 0.52 0.2 0.25 0.42 0.48 0.22 0.23 0.46 0.43 0.25 0.21 0.51 0.39 0.26 0.19 0.54 0.35 0.28 0.15 0.57 0.28 0.3 0.13 0.6 0.23 0.31 0.1 0.62 0.17 0.32 0.07 0.64 0.12 0.32 0.04 0.64 0.04 0.32 0.01 0.65-0.01 0.32-0.02 0.64-0.07 0.31-0.05 0.62-0.14 0.32-0.08 0.62-0.19 0.3-0.11 0.59-0.25 0.29-0.14 0.56-0.31 0.27-0.17 0.53-0.36 0.25-0.2 0.49-0.41 0.23-0.22 0.45-0.46 0.21-0.24 0.4-0.49 0.18-0.26 0.34-0.54 0.16-0.27 0.29-0.56 0.14-0.29 0.24-0.59 0.1-0.29 0.18-0.6 0.07-0.31 0.11-0.62 0.04-0.32 0.05-0.63 0.01-0.32-0.01-0.64-0.03-0.31-0.08-0.62-0.05-0.31-0.14-0.62-0.08-0.3-0.2-0.6-0.11-0.29-0.25-0.58-0.15-0.28-0.32-0.55-0.17-0.26-0.37-0.51-0.19-0.25-0.42-0.48-0.22-0.23-0.46-0.44-0.24-0.21-0.51-0.39-0.26-0.19-0.54-0.34-0.28-0.16-0.57-0.29-0.3-0.13-0.6-0.23-0.31-0.1-0.62-0.17-0.32-0.07-0.64-0.11-0.31-0.04-0.64-0.05-0.32-0.01-0.64 0.01-0.32 0.02-0.64 0.07zm1.64 9.58q-0.16 0.03-0.32 0.04-0.17 0.01-0.33 0.01-0.17-0.01-0.33-0.03-0.16-0.02-0.33-0.05-0.16-0.04-0.31-0.09-0.16-0.05-0.31-0.12-0.15-0.07-0.29-0.15-0.14-0.08-0.28-0.17-0.13-0.09-0.26-0.2-0.12-0.1-0.23-0.22-0.12-0.12-0.22-0.25-0.1-0.13-0.18-0.26-0.09-0.14-0.17-0.28-0.07-0.15-0.13-0.3-0.05-0.15-0.1-0.31-0.04-0.15-0.07-0.31-0.03-0.16-0.04-0.32-0.01-0.16 0-0.32 0-0.16 0.02-0.32 0.02-0.16 0.06-0.32 0.04-0.16 0.09-0.31 0.05-0.15 0.12-0.3 0.07-0.15 0.15-0.29 0.08-0.14 0.18-0.27 0.09-0.13 0.2-0.25 0.11-0.12 0.23-0.23 0.12-0.11 0.25-0.21 0.13-0.1 0.27-0.19 0.14-0.08 0.28-0.16 0.15-0.07 0.31-0.12 0.15-0.06 0.31-0.1 0.16-0.05 0.32-0.07 0.16-0.03 0.33-0.04 0.16-0.01 0.33-0.01 0.16 0.01 0.32 0.03 0.17 0.02 0.33 0.06 0.16 0.03 0.31 0.08 0.16 0.05 0.31 0.12 0.15 0.07 0.29 0.15 0.15 0.08 0.28 0.17 0.13 0.09 0.26 0.2 0.12 0.11 0.24 0.22 0.11 0.12 0.21 0.25 0.1 0.13 0.19 0.26 0.08 0.14 0.16 0.28 0.07 0.15 0.13 0.3 0.06 0.15 0.1 0.3 0.04 0.16 0.07 0.32 0.03 0.16 0.04 0.32 0.01 0.16 0.01 0.32-0.01 0.16-0.03 0.32-0.02 0.16-0.06 0.32-0.03 0.16-0.09 0.31-0.05 0.15-0.12 0.3-0.06 0.15-0.15 0.29-0.08 0.14-0.17 0.27-0.1 0.13-0.21 0.25-0.11 0.12-0.23 0.23-0.12 0.11-0.25 0.21-0.13 0.1-0.27 0.19-0.13 0.08-0.28 0.16-0.15 0.07-0.3 0.12-0.16 0.06-0.32 0.1-0.16 0.05-0.32 0.07z"/>
						</g>
					</g>
				</g>
			</g>
		</g>
	</g>
	<g id="Clip-Path" clip-path="url(#cp19)">
		<g>
			<g id="Clip-Path" clip-path="url(#cp20)">
				<g>
					<g id="Clip-Path" clip-path="url(#cp21)">
						<g>
							<path fill-rule="evenodd" class="s1" d="m121.7 103.71q-0.32 0.06-0.63 0.14-0.32 0.08-0.62 0.19-0.3 0.11-0.59 0.26-0.29 0.14-0.56 0.3-0.27 0.17-0.53 0.36-0.25 0.2-0.49 0.41-0.23 0.22-0.45 0.46-0.21 0.24-0.39 0.49-0.19 0.26-0.35 0.54-0.16 0.27-0.3 0.56-0.13 0.29-0.23 0.59-0.1 0.3-0.17 0.6-0.08 0.31-0.12 0.63-0.04 0.31-0.05 0.62-0.01 0.32 0.01 0.64 0.02 0.31 0.08 0.62 0.05 0.31 0.14 0.62 0.08 0.3 0.19 0.6 0.12 0.29 0.26 0.58 0.15 0.28 0.32 0.55 0.17 0.27 0.37 0.52 0.19 0.25 0.41 0.48 0.23 0.23 0.47 0.43 0.24 0.21 0.5 0.4 0.27 0.18 0.55 0.34 0.28 0.15 0.57 0.28 0.3 0.13 0.6 0.23 0.31 0.1 0.62 0.17 0.32 0.08 0.64 0.12 0.32 0.04 0.64 0.05 0.32 0.01 0.64-0.02 0.32-0.02 0.64-0.07 0.32-0.05 0.63-0.14 0.31-0.08 0.61-0.19 0.31-0.11 0.59-0.25 0.29-0.14 0.57-0.31 0.27-0.17 0.53-0.36 0.25-0.2 0.49-0.41 0.23-0.22 0.44-0.46 0.21-0.24 0.4-0.49 0.19-0.26 0.35-0.53 0.16-0.28 0.29-0.57 0.13-0.29 0.24-0.58 0.1-0.3 0.17-0.61 0.07-0.31 0.11-0.62 0.05-0.32 0.06-0.63 0.01-0.32-0.02-0.63-0.02-0.32-0.07-0.63-0.06-0.31-0.14-0.62-0.09-0.3-0.2-0.6-0.11-0.29-0.26-0.58-0.14-0.28-0.31-0.55-0.17-0.26-0.37-0.51-0.2-0.25-0.42-0.48-0.22-0.23-0.46-0.44-0.25-0.21-0.51-0.39-0.26-0.19-0.54-0.34-0.28-0.16-0.58-0.29-0.29-0.13-0.6-0.23-0.3-0.1-0.61-0.17-0.32-0.07-0.64-0.11-0.32-0.04-0.64-0.05-0.32-0.01-0.65 0.01-0.32 0.02-0.63 0.07zm1.64 9.58q-0.16 0.03-0.33 0.04-0.16 0.01-0.33 0.01-0.16-0.01-0.32-0.03-0.17-0.02-0.33-0.05-0.16-0.04-0.31-0.09-0.16-0.05-0.31-0.12-0.15-0.06-0.29-0.15-0.15-0.08-0.28-0.17-0.14-0.09-0.26-0.2-0.12-0.1-0.24-0.22-0.11-0.12-0.21-0.25-0.1-0.13-0.19-0.26-0.09-0.14-0.16-0.28-0.07-0.15-0.13-0.3-0.06-0.15-0.1-0.3-0.04-0.16-0.07-0.32-0.03-0.16-0.04-0.32-0.01-0.16-0.01-0.32 0.01-0.16 0.03-0.32 0.02-0.16 0.06-0.32 0.03-0.16 0.09-0.31 0.05-0.15 0.12-0.3 0.06-0.15 0.15-0.29 0.08-0.14 0.17-0.27 0.1-0.13 0.21-0.25 0.1-0.12 0.22-0.23 0.13-0.11 0.25-0.21 0.14-0.1 0.27-0.19 0.14-0.08 0.29-0.15 0.15-0.08 0.3-0.13 0.16-0.06 0.32-0.1 0.15-0.04 0.32-0.07 0.16-0.03 0.32-0.04 0.17-0.01 0.33-0.01 0.17 0.01 0.33 0.03 0.16 0.02 0.32 0.06 0.16 0.03 0.32 0.08 0.16 0.05 0.31 0.12 0.15 0.07 0.29 0.15 0.14 0.08 0.28 0.17 0.13 0.09 0.25 0.2 0.13 0.11 0.24 0.22 0.11 0.12 0.22 0.25 0.1 0.13 0.18 0.26 0.09 0.14 0.16 0.28 0.08 0.15 0.14 0.3 0.05 0.15 0.1 0.3 0.04 0.16 0.07 0.32 0.02 0.16 0.04 0.32 0.01 0.16 0 0.32 0 0.16-0.02 0.32-0.02 0.16-0.06 0.32-0.04 0.16-0.09 0.31-0.05 0.15-0.12 0.3-0.07 0.15-0.15 0.29-0.08 0.14-0.18 0.27-0.09 0.13-0.2 0.25-0.11 0.12-0.23 0.23-0.12 0.12-0.25 0.21-0.13 0.1-0.27 0.19-0.14 0.08-0.29 0.16-0.14 0.07-0.3 0.13-0.15 0.05-0.31 0.1-0.16 0.04-0.32 0.06z"/>
						</g>
					</g>
				</g>
			</g>
		</g>
	</g>
	<g id="Clip-Path" clip-path="url(#cp22)">
		<g>
			<g id="Clip-Path" clip-path="url(#cp23)">
				<g>
					<g id="Clip-Path" clip-path="url(#cp24)">
						<g>
							<g id="Clip-Path" clip-path="url(#cp25)">
								<g>
									<g id="Clip-Path" clip-path="url(#cp26)">
										<g>
											<path class="s0" d="m121.42 69.36h16.33v15.99h-16.33z"/>
										</g>
									</g>
								</g>
							</g>
						</g>
					</g>
				</g>
			</g>
		</g>
	</g>
</svg>